HIERARCHY
ROOT Hips
{
	OFFSET 0.000000 0.000000 0.000000
	CHANNELS 6 Xposition Yposition Zposition Zrotation Yrotation Xrotation 
	JOINT LHipJoint
	{
		OFFSET 0.000000 0.000000 0.000000
		CHANNELS 3 Zrotation Yrotation Xrotation
		JOINT LeftUpLeg
		{
			OFFSET 1.363060 -1.794630 0.839290
			CHANNELS 3 Zrotation Yrotation Xrotation
			JOINT LeftLeg
			{
				OFFSET 2.448110 -6.726130 0.000000
				CHANNELS 3 Zrotation Yrotation Xrotation
				JOINT LeftFoot
				{
					OFFSET 2.562200 -7.039590 0.000000
					CHANNELS 3 Zrotation Yrotation Xrotation
					JOINT LeftToeBase
					{
						OFFSET 0.157640 -0.433110 2.322550
						CHANNELS 3 Zrotation Yrotation Xrotation
						End Site
						{
							OFFSET 0.000000 0.000000 0.000000
						}
					}
				}
			}
		}
	}
	JOINT RHipJoint
	{
		OFFSET 0.000000 0.000000 0.000000
		CHANNELS 3 Zrotation Yrotation Xrotation
		JOINT RightUpLeg
		{
			OFFSET -1.305520 -1.794630 0.839290
			CHANNELS 3 Zrotation Yrotation Xrotation
			JOINT RightLeg
			{
				OFFSET -2.542530 -6.985550 0.000000
				CHANNELS 3 Zrotation Yrotation Xrotation
				JOINT RightFoot
				{
					OFFSET -2.568260 -7.056230 0.000000
					CHANNELS 3 Zrotation Yrotation Xrotation
					JOINT RightToeBase
					{
						OFFSET -0.164730 -0.452590 2.363150
						CHANNELS 3 Zrotation Yrotation Xrotation
						End Site
						{
							OFFSET 0.000000 0.000000 0.000000
						}
					}
				}
			}
		}
	}
	JOINT LowerBack
	{
		OFFSET 0.000000 0.000000 0.000000
		CHANNELS 3 Zrotation Yrotation Xrotation
		JOINT Spine
		{
			OFFSET 0.028270 2.035590 -0.193380
			CHANNELS 3 Zrotation Yrotation Xrotation
			JOINT Spine1
			{
				OFFSET 0.056720 2.048850 -0.042750
				CHANNELS 3 Zrotation Yrotation Xrotation
				JOINT Neck
				{
					OFFSET 0.000000 0.000000 0.000000
					CHANNELS 3 Zrotation Yrotation Xrotation
					JOINT Neck1
					{
						OFFSET -0.054170 1.746240 0.172020
						CHANNELS 3 Zrotation Yrotation Xrotation
						JOINT Head
						{
							OFFSET 0.104070 1.761360 -0.123970
							CHANNELS 3 Zrotation Yrotation Xrotation
							End Site
							{
								OFFSET 0.000000 0.000000 0.000000
							}
						}
					}
				}
				JOINT LeftShoulder
				{
					OFFSET 0.000000 0.000000 0.000000
					CHANNELS 3 Zrotation Yrotation Xrotation
					JOINT LeftArm
					{
						OFFSET 3.362410 1.200890 -0.311210
						CHANNELS 3 Zrotation Yrotation Xrotation
						JOINT LeftForeArm
						{
							OFFSET 4.983000 -0.000000 -0.000000
							CHANNELS 3 Zrotation Yrotation Xrotation
							JOINT LeftHand
							{
								OFFSET 3.483560 -0.000000 -0.000000
								CHANNELS 3 Zrotation Yrotation Xrotation
								JOINT LeftFingerBase
								{
									OFFSET 0.000000 0.000000 0.000000
									CHANNELS 3 Zrotation Yrotation Xrotation
									JOINT LeftHandIndex1
									{
										OFFSET 0.715260 -0.000000 -0.000000
										CHANNELS 3 Zrotation Yrotation Xrotation
										End Site
										{
											OFFSET 0.000000 0.000000 0.000000
										}
									}
								}
								JOINT LThumb
								{
									OFFSET 0.000000 0.000000 0.000000
									CHANNELS 3 Zrotation Yrotation Xrotation
									End Site
									{
										OFFSET 0.000000 0.000000 0.000000
									}
								}
							}
						}
					}
				}
				JOINT RightShoulder
				{
					OFFSET 0.000000 0.000000 0.000000
					CHANNELS 3 Zrotation Yrotation Xrotation
					JOINT RightArm
					{
						OFFSET -3.136600 1.374050 -0.404650
						CHANNELS 3 Zrotation Yrotation Xrotation
						JOINT RightForeArm
						{
							OFFSET -5.241900 -0.000000 -0.000000
							CHANNELS 3 Zrotation Yrotation Xrotation
							JOINT RightHand
							{
								OFFSET -3.444170 -0.000000 -0.000000
								CHANNELS 3 Zrotation Yrotation Xrotation
								JOINT RightFingerBase
								{
									OFFSET 0.000000 0.000000 0.000000
									CHANNELS 3 Zrotation Yrotation Xrotation
									JOINT RightHandIndex1
									{
										OFFSET -0.622530 -0.000000 -0.000000
										CHANNELS 3 Zrotation Yrotation Xrotation
										End Site
										{
											OFFSET 0.000000 0.000000 0.000000
										}
									}
								}
								JOINT RThumb
								{
									OFFSET 0.000000 0.000000 0.000000
									CHANNELS 3 Zrotation Yrotation Xrotation
									End Site
									{
										OFFSET 0.000000 0.000000 0.000000
									}
								}
							}
						}
					}
				}
			}
		}
	}
}
MOTION
Frames: 6
Frame Time: 0.016667
-0.369696 18.279441 -0.663621 -0.088501 8.275635 2.902382 -11.269153 -1.945685 -13.365252 -7.820537 -2.664092 -11.814072 -5.137491 3.769460 3.197511 3.952393 21.666896 52.672333 0.000000 0.000000 0.000000 18.476871 -3.295337 2.537872 -7.449608 -4.732030 -12.705211 18.975720 -19.094419 18.438192 2.602098 3.239799 -37.814696 0.000000 0.000000 0.000000 -7.052493 0.951977 11.144719 18.905642 -2.030815 22.525678 -34.277351 -1.290873 -26.272470 -14.689669 6.134408 -39.042249 29.113167 5.121942 0.637327 0.000000 0.000000 0.000000 20.521480 13.911796 13.586734 -65.306582 -3.421869 -9.345310 153.870105 26.774884 -1.152168 2.752547 1.261077 -0.601753 2.747248 1.406907 -0.000000 0.000000 0.000000 0.000000 0.000000 0.000000 0.000000 -40.416823 -20.174491 12.162280 92.859538 11.230607 -0.272525 35.107470 59.563672 -0.000873 -3.141766 8.933826 -0.001658 -3.162161 8.927893 0.000000 0.000000 0.000000 0.000000 0.000000 0.000000 0.000000 
-0.343295 18.278728 -0.447659 -1.594518 6.192573 0.984826 -12.404459 -0.136514 -9.449302 -4.831002 -3.661161 -14.743657 -4.478168 3.929526 5.371522 3.091229 20.031589 49.440882 0.000000 0.000000 0.000000 17.549230 -3.813301 2.042245 -3.283002 -2.556291 -12.381306 12.632787 -19.904339 25.829545 2.371894 3.477111 -35.586021 0.000000 0.000000 0.000000 -6.866977 0.695215 4.989903 19.853970 -6.089350 45.654570 -38.102025 -8.807604 -41.493062 -13.714431 9.856049 -39.123970 30.540168 6.092387 1.546535 0.000000 0.000000 0.000000 5.485443 8.817267 3.795688 -55.699404 -21.476217 -35.492299 141.382329 39.673827 -2.455227 48.137691 4.373006 -1.238084 48.159017 4.096230 0.000000 0.000000 0.000000 0.000000 0.000000 0.000000 0.000000 -30.797562 -21.936130 10.056804 94.859970 11.108112 0.082432 26.208579 55.232942 0.056796 -1.542615 5.899064 0.028155 -1.546333 5.898367 0.000000 0.000000 0.000000 0.000000 0.000000 0.000000 0.000000 
-0.314802 18.279834 -0.232255 -2.626880 3.087149 -0.074036 -13.278582 1.557350 -6.083705 -1.978364 -4.490547 -17.824750 -3.881301 4.300247 7.408528 2.735157 18.507461 46.055249 0.000000 0.000000 0.000000 15.964929 -3.878216 0.642768 1.582944 -0.223549 -11.012709 6.324657 -19.395652 32.181607 2.334966 2.886332 -32.216928 0.000000 0.000000 0.000000 -5.429360 -0.063926 1.745467 16.504640 -7.943089 59.702279 -27.727524 -8.209988 -49.140832 -7.290428 6.259051 -38.216878 18.203966 2.697258 7.511480 0.000000 0.000000 0.000000 6.230810 11.245048 -3.150565 -59.934473 -19.723989 -36.761409 -7.920568 79.229583 0.013081 -2.948799 -2.736671 0.006429 -2.950116 -2.733949 -0.000000 0.000000 0.000000 0.000000 0.000000 0.000000 0.000000 -27.369837 -21.679863 4.418800 95.528739 17.338544 1.287113 20.080928 48.089005 0.094091 -0.467904 3.377571 0.047102 -0.464964 3.378281 0.000000 0.000000 0.000000 0.000000 0.000000 0.000000 0.000000 
-0.291127 18.222726 0.004226 -1.036018 4.613096 0.694030 -11.155756 2.849728 -7.354037 -8.589391 -5.430183 -15.226080 -1.423015 2.975461 6.323216 1.968813 17.109678 44.607389 0.000000 0.000000 0.000000 17.534282 -6.295624 4.165978 -2.645521 2.817839 -18.551112 4.767828 -21.306302 39.121268 3.115879 2.220224 -32.086233 0.000000 0.000000 0.000000 -7.474461 0.700638 0.291254 20.279676 -8.938263 59.645844 -29.008084 -7.644958 -45.751360 -10.708547 7.096575 -36.631403 18.450343 3.561734 3.723552 0.000000 0.000000 0.000000 9.247671 11.212170 -1.197870 -66.964624 -24.437303 -34.018787 -35.454797 70.535445 0.940933 -1.639792 -7.848046 0.470943 -1.651804 -7.875054 -0.000000 0.000000 0.000000 0.000000 0.000000 0.000000 0.000000 -28.306728 -24.445603 3.933586 93.134936 17.042813 1.333399 18.268826 50.269892 0.088989 -0.692458 3.454982 0.044546 -0.689846 3.455663 0.000000 0.000000 0.000000 0.000000 0.000000 0.000000 0.000000 
-0.266134 18.166208 0.239502 0.494119 7.271591 0.230963 -8.173934 4.740298 -8.638379 -17.148380 -5.582892 -10.400193 1.879856 0.964268 4.270897 1.286629 15.894842 44.985093 0.000000 0.000000 0.000000 18.780159 -5.972315 6.101069 -7.383364 4.385331 -23.712923 2.743962 -25.011123 48.468353 5.109988 -2.607675 -26.453827 0.000000 0.000000 0.000000 -10.270599 -1.339883 -0.939199 25.487183 -12.868298 59.562976 -31.374099 -7.684705 -39.974606 -14.469027 7.737659 -33.776193 19.343887 4.747783 -1.962129 0.000000 0.000000 0.000000 11.527347 8.280027 1.220614 -67.390894 -13.688516 6.725227 -70.082921 -3.778202 2.332415 1.781085 -21.599375 1.150871 1.800338 -21.646624 -0.000000 0.000000 0.000000 0.000000 0.000000 0.000000 0.000000 -29.234974 -24.873982 2.267293 92.895850 19.044791 1.078488 15.651300 52.135310 0.080536 -0.935804 3.512795 0.040312 -0.933652 3.513384 0.000000 0.000000 0.000000 0.000000 0.000000 0.000000 0.000000 
-0.293403 18.291279 0.417673 -0.197558 10.687358 0.007253 -8.694273 4.273544 -7.571939 -16.399796 -5.891024 -9.721508 1.558556 -0.309453 2.810534 1.325188 15.558480 46.662218 0.000000 0.000000 0.000000 21.180844 -1.988401 5.009063 -10.980471 3.317249 -24.373573 1.837738 -29.394327 54.419752 7.478536 -11.683624 -13.787747 0.000000 0.000000 0.000000 -13.034416 -3.617248 -2.103870 32.020213 -17.354750 60.949757 -34.175413 -9.008643 -37.860969 -18.594458 9.482493 -34.995250 22.317110 6.302842 -4.884498 0.000000 0.000000 0.000000 12.976832 3.001466 2.484113 -76.981815 0.711600 38.733626 -29.017251 -63.084062 4.627855 13.290001 -31.588963 2.220374 13.539415 -31.425836 0.000000 0.000000 0.000000 0.000000 0.000000 0.000000 0.000000 -29.333188 -25.304717 1.362771 92.089141 19.633726 0.947353 15.144949 53.004912 0.062545 -1.154912 3.620943 0.031278 -1.154000 3.621232 0.000000 0.000000 0.000000 0.000000 0.000000 0.000000 0.000000 
